<svg width="274" height="257" viewBox="0 0 274 257" fill="none" xmlns="http://www.w3.org/2000/svg">
<path fill-rule="evenodd" clip-rule="evenodd" d="M259.326 185.472C261.564 181.245 263.561 176.886 265.3 172.41L143.07 0.133707C140.983 0.0448895 138.883 0 136.772 0C133.799 0 130.847 0.0890864 127.921 0.264571L259.326 185.472ZM126.75 0.339502C123.293 0.574527 119.872 0.93015 116.491 1.40191L253.788 194.914C255.567 192.161 257.24 189.34 258.799 186.456L126.75 0.339502ZM246.425 51.6426C237.713 40.691 227.182 31.0884 215.254 23.2289L270.419 100.981C267.287 87.4648 261.888 74.7427 254.614 63.1839L246.425 51.6426ZM248.178 202.906C249.933 200.598 251.609 198.232 253.202 195.813L115.38 1.56137C112.374 2.00471 109.4 2.54 106.461 3.16409L248.178 202.906ZM105.4 3.39374C102.25 4.08779 99.142 4.88406 96.0801 5.77863L241.6 210.881C243.668 208.567 245.65 206.184 247.543 203.736L105.4 3.39374ZM273.496 131.845C273.529 130.701 273.545 129.553 273.545 128.402C273.545 119.877 272.66 111.546 270.971 103.486L212.996 21.7729C204.622 16.4865 195.591 12.0466 186.043 8.58365L273.496 131.845ZM184.405 8.0011C179.881 6.42306 175.244 5.06332 170.508 3.93551L272.101 147.125C272.797 142.651 273.248 138.102 273.439 133.49L184.405 8.0011ZM230.566 221.856C234.21 218.631 237.665 215.221 240.915 211.641L95.0683 6.0783C90.272 7.5183 85.5908 9.20003 81.041 11.1082L230.566 221.856ZM80.0996 11.5071C77.2904 12.7094 74.5321 13.9983 71.8286 15.3702L222.834 228.203C225.228 226.381 227.555 224.485 229.812 222.518L80.0996 11.5071ZM269.532 159.402C270.474 155.835 271.257 152.209 271.874 148.531L169.042 3.59443C165.245 2.73224 161.386 2.0188 157.472 1.46103L269.532 159.402ZM156.115 1.27417C152.239 0.759005 148.31 0.396405 144.337 0.193052L265.729 171.289C267.042 167.81 268.2 164.262 269.194 160.653L156.115 1.27417ZM215.329 233.525C216.04 233.055 216.747 232.58 217.448 232.098L186.669 193.13L215.329 233.525ZM175.437 177.299L218.271 231.529C219.543 230.641 220.799 229.733 222.036 228.805L70.9305 15.83C68.4784 17.0967 66.0722 18.432 63.7147 19.833L175.437 177.299ZM62.8556 20.3478L163.404 162.065L55.3277 25.2372C57.7755 23.5312 60.2861 21.9002 62.8556 20.3478ZM174.636 177.896L214.493 234.072C211.983 235.702 209.412 237.255 206.784 238.728L66.4113 40.8802L174.636 177.896ZM54.5005 25.8182C52.1528 27.4803 49.8639 29.2117 47.6375 31.0093L198.166 243.172C200.796 241.929 203.377 240.61 205.906 239.216L54.5005 25.8182ZM197.247 243.602L46.8611 31.6408C44.5275 33.5535 42.2637 35.5395 40.0737 37.5948L188.784 247.193C191.655 246.084 194.478 244.886 197.247 243.602ZM187.82 247.561L39.341 38.2877C37.327 40.2067 35.3768 42.1849 33.4936 44.2194L179.736 250.34C182.47 249.492 185.166 248.565 187.82 247.561ZM178.731 250.648L32.8029 44.9714C30.718 47.2591 28.7173 49.6164 26.8053 52.0391L169.466 253.112C172.598 252.391 175.688 251.568 178.731 250.648ZM168.411 253.351L26.1631 52.8596C23.031 56.8946 20.1433 61.1075 17.5204 65.4791L152.657 255.947C158.009 255.366 163.266 254.494 168.411 253.351ZM151.517 256.066L16.9624 66.4183C15.267 69.3005 13.6861 72.2504 12.2256 75.2626L140.986 256.743C144.532 256.643 148.044 256.415 151.517 256.066ZM139.783 256.773L11.732 76.2926C10.3608 79.1881 9.10042 82.1401 7.95583 85.1438L129.626 256.631C131.993 256.745 134.375 256.803 136.772 256.803C137.778 256.803 138.782 256.793 139.783 256.773ZM128.354 256.564L7.53215 86.2723C6.23586 89.7775 5.09681 93.3518 4.12291 96.9876L116.52 255.405C120.414 255.948 124.361 256.336 128.354 256.564ZM115.156 255.209L3.79262 98.2478C2.36382 103.821 1.32224 109.536 0.696114 115.366L97.1677 251.338C103.009 252.994 109.014 254.293 115.156 255.209ZM95.6266 250.891L0.543449 116.877C0.18372 120.673 0 124.517 0 128.402C0 129.502 0.0147529 130.6 0.0440833 131.694L80.8798 245.627C85.6564 247.638 90.5784 249.398 95.6266 250.891ZM79.1198 244.872L0.106137 133.507C0.344032 139.219 0.979341 144.835 1.98683 150.331L63.2682 236.704C68.3346 239.741 73.6282 242.473 79.1198 244.872ZM61.1044 235.38L2.44649 152.705C4.61964 163.354 8.19409 173.536 12.9828 183.075L35.2099 214.403C42.8626 222.363 51.562 229.419 61.1044 235.38ZM17.0498 190.533C20.6749 196.677 24.8209 202.511 29.4318 207.985L17.0498 190.533Z" fill="url(#paint0_linear_23_296)" fill-opacity="0.4"/>
<defs>
<linearGradient id="paint0_linear_23_296" x1="48.5902" y1="41.6742" x2="200.845" y2="225.241" gradientUnits="userSpaceOnUse">
<stop stop-color="#ED7550"/>
<stop offset="0.527722" stop-color="#488AEA"/>
<stop offset="0.991559" stop-color="#2C2C2C"/>
</linearGradient>
</defs>
</svg>
